# xmcd
#
# Track frame offsets:
#	150
#	14199
#	25227
#	36057
#	46923
#	56764
#	67088
#	78851
#	89240
#	101310
#	113601
#	123600
#	135492
#	145936
#	157292
#	169416
#	179424
#
# Disc length: 2563 seconds
#
# Revision: 0
# Processed by: cddbd v1.5.2PL0 Copyright (c) Steve Scherf et al.
# Submitted via: audiograbber 1.83.01
#
DISCID=f60a0111
DTITLE=George Jones - 2010  The Great Lost Hits CD2 1965-1971 - 
DYEAR=2010
DGENRE=Country
TTITLE0=A Good Year for the roses
TTITLE1=Tell me lying eyes are wrong
TTITLE2=World of forgotten people
TTITLE3=Sometimes You Just Can't Win
TTITLE4=Right Won't Touch a Hand
TTITLE5=A Day in the life of a fool
TTITLE6=Burn another honky tonk down
TTITLE7=Your angel steps out of heaven
TTITLE8=I'll follow you (Up To Our Cloud)
TTITLE9=Never grow cold
TTITLE10=The honky tonk downstairs (Previously Unreleased In N. America)
TTITLE11=We must have been out of our minds (Melba Montgomery)
TTITLE12=Developing my pictures
TTITLE13=Old Bursh Arbors
TTITLE14=Beaneath Still Waters
TTITLE15=Feeling single, seeing double
TTITLE16=Will you visit me on Sunday
EXTD=
EXTT0=
EXTT1=
EXTT2=
EXTT3=
EXTT4=
EXTT5=
EXTT6=
EXTT7=
EXTT8=
EXTT9=
EXTT10=
EXTT11=
EXTT12=
EXTT13=
EXTT14=
EXTT15=
EXTT16=
PLAYORDER=
